<svg width="1313" height="948" viewBox="0 0 1313 948" fill="none" xmlns="http://www.w3.org/2000/svg">
<path opacity="0.1" d="M726.86 452.02C700.33 451.982 674.322 459.385 651.79 473.39C651.51 435.801 636.382 399.847 609.704 373.365C583.025 346.883 546.96 332.022 509.37 332.02C492.425 332.002 475.613 335.017 459.73 340.92V306.45C459.73 287.745 456.046 269.223 448.887 251.942C441.729 234.661 431.237 218.959 418.01 205.733C404.783 192.507 389.08 182.016 371.799 174.859C354.517 167.702 335.995 164.019 317.29 164.02C279.515 164.02 243.288 179.026 216.577 205.737C189.866 232.448 174.86 268.675 174.86 306.45V684.45H869.29V594.45C869.29 556.675 854.284 520.448 827.573 493.737C800.862 467.026 764.635 452.02 726.86 452.02Z" fill="#38D438"/>
<g clip-path="url(#clip0)" filter="url(#filter0_d)">
<path d="M888.19 667.47C888.19 667.47 908.19 636.12 910.55 622.73C912.208 613.993 914.538 605.398 917.52 597.02" stroke="#535461" stroke-width="2" stroke-miterlimit="10"/>
<path d="M922.06 623.8L909.52 624.87C909.52 624.87 916.17 636.38 922.06 623.8Z" fill="#38D438"/>
<path d="M900.1 616.84L910.1 624.84C910.1 624.84 897.16 629.96 900.1 616.84Z" fill="#38D438"/>
<path d="M923.67 612.82L912.34 614.34C912.34 614.34 922.33 622.46 923.67 612.82Z" fill="#38D438"/>
<path d="M904.92 608.8L912.4 614.05C912.4 614.05 903.32 617.91 904.92 608.8Z" fill="#38D438"/>
<path d="M915.18 604.02C915.18 604.02 924.47 601.56 925.81 602.1C927.15 602.64 926.35 608.52 922.6 608.79C918.85 609.06 915.18 604.02 915.18 604.02Z" fill="#38D438"/>
<path d="M908.94 597.02C908.94 597.02 914.83 602.64 915.1 604.02C915.37 605.4 910.28 608.57 907.6 604.02C904.92 599.47 908.94 597.02 908.94 597.02Z" fill="#38D438"/>
<path d="M919.92 600.23C921.4 600.23 922.6 599.03 922.6 597.55C922.6 596.07 921.4 594.87 919.92 594.87C918.44 594.87 917.24 596.07 917.24 597.55C917.24 599.03 918.44 600.23 919.92 600.23Z" fill="#FFD037"/>
<path d="M915.1 598.89C916.58 598.89 917.78 597.69 917.78 596.21C917.78 594.73 916.58 593.53 915.1 593.53C913.62 593.53 912.42 594.73 912.42 596.21C912.42 597.69 913.62 598.89 915.1 598.89Z" fill="#FFD037"/>
<path opacity="0.1" d="M776.41 355.12C766.41 365.23 765.8 380.73 765.8 380.73C765.8 380.73 781.29 379.85 791.25 369.73C801.21 359.61 801.86 344.12 801.86 344.12C801.86 344.12 786.37 345.02 776.41 355.12Z" fill="#38D438"/>
<path opacity="0.1" d="M691.52 286.11C695.05 299.86 707.99 308.41 707.99 308.41C707.99 308.41 715.22 294.68 711.7 280.93C708.18 267.18 695.22 258.64 695.22 258.64C695.22 258.64 688.02 272.37 691.52 286.11Z" fill="#38D438"/>
<path opacity="0.1" d="M872.37 416.92C862.37 427.03 861.75 442.53 861.75 442.53C861.75 442.53 877.24 441.65 887.2 431.53C897.16 421.41 897.82 405.92 897.82 405.92C897.82 405.92 882.33 406.81 872.37 416.92Z" fill="#38D438"/>
<path opacity="0.1" d="M912.22 503.94C911.06 518.08 920.49 530.4 920.49 530.4C920.49 530.4 931.82 519.79 932.98 505.65C934.14 491.51 924.71 479.19 924.71 479.19C924.71 479.19 913.38 489.8 912.22 503.94Z" fill="#38D438"/>
<path d="M186.45 673.89C186.45 673.89 630.78 589.21 1120.45 673.89C1610.12 758.57 -56.85 745.58 186.45 673.89Z" fill="#38D438"/>
<path d="M432.74 687.69C433.53 697.81 423.66 705.46 414.22 709.17C404.78 712.88 394.01 715.17 387.5 722.93C385.663 724.937 384.523 727.483 384.25 730.19C383.95 736.12 389.47 740.62 394.78 743.26C409.98 750.8 427.45 751.72 444.16 754.65C460.87 757.58 478.47 763.53 488.07 777.52C492.52 784.02 494.94 791.87 499.93 798.02C507.93 807.79 521.64 811.63 534.14 809.94C546.64 808.25 558.04 801.72 567.86 793.8C578.86 784.93 589 773.8 602.69 770.28C626.25 764.17 648.27 782.42 670.78 791.7C697.96 802.9 728.92 801.02 757.47 793.99C763.87 792.41 770.35 790.53 775.8 786.82C782.09 782.55 786.6 776.15 792.49 771.35C807.11 759.43 827.66 758.98 846.49 759.09L901.18 759.4C911.99 759.46 923.51 759.32 932.55 753.4C941.82 747.32 946.72 735.74 946.13 724.67C945.54 713.6 939.99 703.16 932.22 695.25C914.95 677.67 888.89 672.67 864.47 669.25C746.95 653.02 627.77 654.35 509.11 655.7C489.26 655.93 469.31 656.14 449.61 658.89C444.72 659.57 424.35 660.58 422.43 665.77C420.62 670.65 432.27 681.66 432.74 687.69Z" fill="#38D438"/>
<path d="M294.77 781.73C316.977 781.73 334.98 778.686 334.98 774.93C334.98 771.174 316.977 768.13 294.77 768.13C272.563 768.13 254.56 771.174 254.56 774.93C254.56 778.686 272.563 781.73 294.77 781.73Z" fill="#38D438"/>
<path d="M326.73 838.15C348.937 838.15 366.94 835.106 366.94 831.35C366.94 827.595 348.937 824.55 326.73 824.55C304.523 824.55 286.52 827.595 286.52 831.35C286.52 835.106 304.523 838.15 326.73 838.15Z" fill="#38D438"/>
<path d="M201.79 741.73C216.663 741.73 228.72 739.693 228.72 737.18C228.72 734.667 216.663 732.63 201.79 732.63C186.917 732.63 174.86 734.667 174.86 737.18C174.86 739.693 186.917 741.73 201.79 741.73Z" fill="#38D438"/>
<path d="M421.16 800.02C436.033 800.02 448.09 797.983 448.09 795.47C448.09 792.957 436.033 790.92 421.16 790.92C406.287 790.92 394.23 792.957 394.23 795.47C394.23 797.983 406.287 800.02 421.16 800.02Z" fill="#38D438"/>
<path d="M998.82 762.23C1013.69 762.23 1025.75 760.193 1025.75 757.68C1025.75 755.167 1013.69 753.13 998.82 753.13C983.947 753.13 971.89 755.167 971.89 757.68C971.89 760.193 983.947 762.23 998.82 762.23Z" fill="#38D438"/>
<path d="M828.79 806.64C843.663 806.64 855.72 804.603 855.72 802.09C855.72 799.577 843.663 797.54 828.79 797.54C813.917 797.54 801.86 799.577 801.86 802.09C801.86 804.603 813.917 806.64 828.79 806.64Z" fill="#38D438"/>
<path d="M1113.33 781.73C1135.54 781.73 1153.54 778.686 1153.54 774.93C1153.54 771.174 1135.54 768.13 1113.33 768.13C1091.12 768.13 1073.12 771.174 1073.12 774.93C1073.12 778.686 1091.12 781.73 1113.33 781.73Z" fill="#38D438"/>
<path d="M951.47 824.05C987.341 824.05 1016.42 819.134 1016.42 813.07C1016.42 807.006 987.341 802.09 951.47 802.09C915.599 802.09 886.52 807.006 886.52 813.07C886.52 819.134 915.599 824.05 951.47 824.05Z" fill="#38D438"/>
<path d="M644.22 862.03C694.345 862.03 734.98 855.162 734.98 846.69C734.98 838.218 694.345 831.35 644.22 831.35C594.095 831.35 553.46 838.218 553.46 846.69C553.46 855.162 594.095 862.03 644.22 862.03Z" fill="#38D438"/>
<path d="M1156.99 623.47C1156.99 623.47 1133.79 619.78 1131.68 640.57C1129.57 661.36 1087.07 664.24 1087.07 664.24L1087.87 664.77C1122.95 687.77 1156.49 679.44 1151.44 648.86C1149.52 637.49 1149.71 626.07 1156.99 623.47Z" fill="#38D438"/>
<path d="M883.9 643.7C883.9 643.7 877.69 622.62 885.06 607.1C888.199 600.613 889.146 593.282 887.76 586.21C887.058 582.856 886.054 579.573 884.76 576.4" stroke="#535461" stroke-width="2" stroke-miterlimit="10"/>
<path d="M889.39 566.59C889.39 569.18 884.71 576.67 884.71 576.67C884.71 576.67 880.03 569.18 880.03 566.59C880.03 565.349 880.523 564.158 881.401 563.281C882.278 562.403 883.469 561.91 884.71 561.91C885.951 561.91 887.142 562.403 888.019 563.281C888.897 564.158 889.39 565.349 889.39 566.59Z" fill="#38D438"/>
<path d="M897.12 580.91C895.72 583.08 887.72 586.82 887.72 586.82C887.72 586.82 887.86 577.99 889.27 575.82C889.595 575.284 890.024 574.819 890.532 574.453C891.04 574.086 891.616 573.825 892.227 573.685C892.837 573.545 893.47 573.529 894.087 573.639C894.703 573.748 895.292 573.979 895.818 574.32C896.343 574.661 896.795 575.104 897.146 575.623C897.498 576.141 897.741 576.725 897.863 577.34C897.984 577.954 897.981 578.587 897.853 579.2C897.726 579.813 897.476 580.395 897.12 580.91Z" fill="#38D438"/>
<path d="M896.78 605.37C894.48 606.53 885.68 605.73 885.68 605.73C885.68 605.73 890.26 598.17 892.57 597.01C893.679 596.452 894.964 596.357 896.142 596.746C897.321 597.135 898.297 597.976 898.855 599.085C899.413 600.194 899.508 601.479 899.119 602.657C898.73 603.836 897.889 604.812 896.78 605.37Z" fill="#38D438"/>
<path d="M892.36 623.81C890.28 625.35 881.52 626.02 881.52 626.02C881.52 626.02 884.76 617.8 886.84 616.26C887.331 615.865 887.898 615.573 888.505 615.402C889.112 615.231 889.747 615.184 890.372 615.265C890.998 615.346 891.601 615.552 892.144 615.872C892.688 616.191 893.162 616.617 893.537 617.124C893.911 617.631 894.18 618.209 894.326 618.822C894.472 619.436 894.493 620.073 894.387 620.694C894.28 621.316 894.05 621.91 893.708 622.44C893.367 622.97 892.922 623.426 892.4 623.78L892.36 623.81Z" fill="#38D438"/>
<path d="M877.89 587.32C879.75 589.12 888.38 590.99 888.38 590.99C888.38 590.99 886.27 582.41 884.38 580.61C883.482 579.788 882.3 579.347 881.083 579.382C879.866 579.418 878.71 579.926 877.862 580.799C877.013 581.672 876.539 582.842 876.538 584.059C876.538 585.277 877.012 586.446 877.86 587.32H877.89Z" fill="#38D438"/>
<path d="M872.99 608.96C875.3 610.13 884.1 609.32 884.1 609.32C884.1 609.32 879.51 601.77 877.21 600.61C876.66 600.311 876.055 600.125 875.431 600.064C874.808 600.003 874.179 600.068 873.581 600.254C872.983 600.441 872.428 600.746 871.95 601.15C871.472 601.555 871.08 602.052 870.798 602.611C870.515 603.17 870.348 603.78 870.306 604.405C870.263 605.03 870.347 605.657 870.551 606.249C870.755 606.841 871.077 607.386 871.496 607.852C871.915 608.318 872.423 608.694 872.99 608.96Z" fill="#38D438"/>
<path d="M871.12 630.65C873.2 632.19 882 632.88 882 632.88C882 632.88 878.76 624.67 876.68 623.13C876.189 622.735 875.622 622.443 875.015 622.272C874.408 622.101 873.773 622.054 873.148 622.135C872.522 622.216 871.919 622.422 871.376 622.742C870.832 623.061 870.358 623.487 869.983 623.994C869.609 624.501 869.34 625.079 869.194 625.692C869.048 626.306 869.027 626.943 869.133 627.564C869.24 628.186 869.47 628.78 869.812 629.31C870.153 629.84 870.598 630.296 871.12 630.65Z" fill="#38D438"/>
<path d="M870.39 641.65C870.39 641.65 881.74 639.38 884.76 636.36C887.78 633.34 901.41 628.03 902.92 631.82C904.43 635.61 923.34 648.46 910.48 650.73C897.62 653 880.22 653.73 876.48 652.24C872.74 650.75 870.39 641.65 870.39 641.65Z" fill="#A8A8A8"/>
<path opacity="0.2" d="M910.52 649.32C897.66 651.59 880.26 652.32 876.52 650.84C873.64 649.68 871.64 644.15 870.85 641.57L870.47 641.65C870.47 641.65 872.74 650.73 876.47 652.24C880.2 653.75 897.65 653 910.47 650.73C914.19 650.07 915.25 648.54 914.85 646.59C914.52 647.86 913.25 648.84 910.52 649.32Z" fill="black"/>
<path d="M212.46 575.45C227.79 598.08 222.9 679.09 222.9 679.09C222.9 679.09 145.9 653.59 130.52 630.96C126.779 625.583 124.142 619.516 122.763 613.112C121.384 606.707 121.291 600.093 122.488 593.653C123.685 587.212 126.148 581.073 129.736 575.592C133.324 570.111 137.964 565.396 143.387 561.722C148.811 558.048 154.91 555.487 161.331 554.188C167.752 552.889 174.367 552.878 180.792 554.155C187.217 555.432 193.325 557.972 198.761 561.627C204.197 565.283 208.854 569.981 212.46 575.45Z" fill="#38D438"/>
<path opacity="0.1" d="M212.46 575.45C227.79 598.08 222.9 679.09 222.9 679.09C222.9 679.09 145.9 653.59 130.52 630.96C126.779 625.583 124.142 619.516 122.763 613.112C121.384 606.707 121.291 600.093 122.488 593.653C123.685 587.212 126.148 581.073 129.736 575.592C133.324 570.111 137.964 565.396 143.387 561.722C148.811 558.048 154.91 555.487 161.331 554.188C167.752 552.889 174.367 552.878 180.792 554.155C187.217 555.432 193.325 557.972 198.761 561.627C204.197 565.283 208.854 569.981 212.46 575.45Z" fill="black"/>
<path d="M144.03 562.29C144.03 562.29 201.77 606.86 223.2 679.15" stroke="#535461" stroke-miterlimit="10"/>
<path d="M237.74 617.75C237.74 617.75 196.74 610.75 224.79 678.66C224.79 678.66 253.28 667.8 255.5 640.78C255.94 635.523 254.438 630.287 251.278 626.063C248.117 621.839 243.518 618.921 238.35 617.86L237.74 617.75Z" fill="#38D438"/>
<path d="M238.34 617.67C238.34 617.67 246.16 655.23 224.79 678.67" stroke="#535461" stroke-miterlimit="10"/>
<path d="M1098.52 625.48C1098.52 628.01 1098.23 630.06 1097.88 630.06C1097.53 630.06 1097.25 628.06 1097.25 625.48C1097.25 622.9 1097.61 624.14 1097.96 624.14C1098.31 624.14 1098.52 622.95 1098.52 625.48Z" fill="#FFD037"/>
<path d="M1102.02 628.5C1099.8 629.71 1097.87 630.44 1097.7 630.13C1097.53 629.82 1099.2 628.6 1101.42 627.39C1103.64 626.18 1102.76 627.06 1102.93 627.39C1103.1 627.72 1104.24 627.29 1102.02 628.5Z" fill="#FFD037"/>
<path d="M1050.83 660.18C1050.83 660.18 1066.19 659.7 1070.83 656.41C1075.47 653.12 1094.46 649.18 1095.61 654.46C1096.76 659.74 1118.69 680.75 1101.35 680.89C1084.01 681.03 1061.06 678.19 1056.44 675.38C1051.82 672.57 1050.83 660.18 1050.83 660.18Z" fill="#A8A8A8"/>
<path opacity="0.2" d="M1101.64 679.02C1084.3 679.16 1061.35 676.32 1056.73 673.51C1053.21 671.37 1051.81 663.68 1051.34 660.13H1050.83C1050.83 660.13 1051.83 672.51 1056.42 675.33C1061.01 678.15 1083.99 680.98 1101.33 680.84C1106.33 680.84 1108.07 679.02 1107.97 676.39C1107.27 678.02 1105.37 679.02 1101.64 679.02Z" fill="black"/>
<path d="M1129.95 763.82C1131.79 762.324 1133.12 760.305 1133.78 758.03C1134.28 755.73 1133.3 753.03 1131.1 752.14C1128.64 751.2 1126.02 752.9 1124.02 754.63C1122.02 756.36 1119.75 758.31 1117.14 757.95C1118.48 756.733 1119.48 755.19 1120.05 753.471C1120.62 751.752 1120.73 749.916 1120.38 748.14C1120.27 747.404 1119.96 746.713 1119.48 746.14C1118.11 744.69 1115.64 745.31 1114 746.46C1108.8 750.12 1107.35 757.18 1107.32 763.54C1106.8 761.25 1107.24 758.86 1107.23 756.54C1107.22 754.22 1106.57 751.54 1104.58 750.31C1103.36 749.633 1101.98 749.288 1100.58 749.31C1098.24 749.23 1095.58 749.46 1094.04 751.17C1092.04 753.3 1092.57 756.86 1094.29 759.17C1096.01 761.48 1098.64 762.97 1101.06 764.59C1103 765.747 1104.65 767.322 1105.9 769.2C1106.04 769.462 1106.16 769.737 1106.25 770.02H1120.91C1124.19 768.37 1127.23 766.285 1129.95 763.82Z" fill="#38D438"/>
<path d="M437.78 784.59C439.615 783.092 440.954 781.073 441.62 778.8C442.11 776.51 441.13 773.8 438.94 772.91C436.48 771.97 433.85 773.68 431.86 775.4C429.87 777.12 427.58 779.09 424.97 778.72C426.312 777.505 427.316 775.962 427.884 774.242C428.452 772.523 428.564 770.686 428.21 768.91C428.096 768.174 427.785 767.483 427.31 766.91C425.94 765.45 423.47 766.07 421.83 767.22C416.63 770.88 415.18 777.95 415.16 784.3C414.63 782.01 415.07 779.62 415.06 777.3C415.05 774.98 414.4 772.3 412.42 771.07C411.191 770.414 409.812 770.09 408.42 770.13C406.08 770.04 403.48 770.28 401.88 771.99C399.88 774.11 400.41 777.67 402.14 779.99C403.87 782.31 406.49 783.8 408.9 785.41C410.84 786.563 412.494 788.139 413.74 790.02C413.886 790.285 414.006 790.563 414.1 790.85H428.72C432.009 789.183 435.057 787.077 437.78 784.59Z" fill="#38D438"/>
<path d="M338.78 691.47C338.78 691.47 324.72 643.76 341.41 608.64C348.501 593.957 350.641 577.372 347.51 561.37C345.956 553.785 343.714 546.357 340.81 539.18" stroke="#535461" stroke-width="2" stroke-miterlimit="10"/>
<path d="M351.2 517.02C351.2 522.86 340.61 539.82 340.61 539.82C340.61 539.82 330.02 522.82 330.02 517.02C330.02 514.211 331.136 511.518 333.122 509.532C335.108 507.546 337.801 506.43 340.61 506.43C343.419 506.43 346.112 507.546 348.098 509.532C350.084 511.518 351.2 514.211 351.2 517.02Z" fill="#38D438"/>
<path d="M368.7 549.38C365.52 554.28 347.42 562.76 347.42 562.76C347.42 562.76 347.74 542.76 350.92 537.87C351.676 536.702 352.654 535.695 353.799 534.906C354.944 534.117 356.233 533.561 357.593 533.269C358.953 532.978 360.357 532.958 361.725 533.209C363.093 533.461 364.398 533.979 365.565 534.735C366.732 535.491 367.74 536.469 368.529 537.614C369.318 538.759 369.874 540.048 370.166 541.408C370.457 542.768 370.477 544.172 370.226 545.54C369.974 546.908 369.456 548.212 368.7 549.38Z" fill="#38D438"/>
<path d="M367.93 604.72C362.71 607.35 342.8 605.53 342.8 605.53C342.8 605.53 353.18 588.45 358.4 585.81C359.645 585.151 361.009 584.746 362.412 584.621C363.815 584.495 365.229 584.651 366.571 585.078C367.914 585.506 369.157 586.197 370.229 587.112C371.301 588.026 372.179 589.145 372.813 590.403C373.447 591.661 373.824 593.032 373.921 594.438C374.018 595.843 373.834 597.254 373.379 598.587C372.925 599.92 372.208 601.15 371.273 602.203C370.337 603.256 369.201 604.112 367.93 604.72Z" fill="#38D438"/>
<path d="M357.92 646.47C353.22 649.94 333.29 651.47 333.29 651.47C333.29 651.47 340.63 632.88 345.29 629.4C346.399 628.491 347.682 627.816 349.06 627.418C350.438 627.019 351.883 626.904 353.306 627.081C354.73 627.257 356.103 627.721 357.342 628.444C358.581 629.167 359.66 630.135 360.514 631.288C361.367 632.44 361.978 633.755 362.309 635.151C362.639 636.547 362.682 637.995 362.436 639.408C362.19 640.822 361.659 642.17 360.876 643.372C360.093 644.574 359.073 645.604 357.88 646.4L357.92 646.47Z" fill="#38D438"/>
<path d="M325.19 563.89C329.38 567.97 348.92 572.19 348.92 572.19C348.92 572.19 344.13 552.78 339.92 548.71C337.907 546.754 335.199 545.678 332.393 545.718C329.587 545.758 326.911 546.912 324.955 548.925C322.999 550.938 321.923 553.646 321.963 556.452C322.003 559.259 323.157 561.934 325.17 563.89H325.19Z" fill="#38D438"/>
<path d="M314.1 612.86C319.32 615.5 339.23 613.68 339.23 613.68C339.23 613.68 328.85 596.59 323.63 593.96C321.124 592.696 318.218 592.48 315.552 593.359C312.886 594.237 310.679 596.139 309.415 598.645C308.151 601.151 307.935 604.057 308.813 606.723C309.692 609.389 311.594 611.596 314.1 612.86Z" fill="#38D438"/>
<path d="M309.86 661.94C314.52 665.42 334.52 667.02 334.52 667.02C334.52 667.02 327.18 648.42 322.52 644.95C321.411 644.041 320.128 643.366 318.75 642.967C317.372 642.569 315.927 642.454 314.504 642.631C313.08 642.807 311.707 643.271 310.468 643.994C309.229 644.717 308.15 645.685 307.296 646.838C306.443 647.99 305.832 649.305 305.501 650.701C305.171 652.097 305.128 653.545 305.374 654.958C305.62 656.372 306.151 657.72 306.934 658.922C307.717 660.124 308.737 661.154 309.93 661.95L309.86 661.94Z" fill="#38D438"/>
<path d="M351.2 517.02C351.2 522.86 340.61 539.82 340.61 539.82C340.61 539.82 330.02 522.82 330.02 517.02C330.02 514.211 331.136 511.518 333.122 509.532C335.108 507.546 337.801 506.43 340.61 506.43C343.419 506.43 346.112 507.546 348.098 509.532C350.084 511.518 351.2 514.211 351.2 517.02Z" fill="#FC6681"/>
<path d="M368.7 549.38C365.52 554.28 347.42 562.76 347.42 562.76C347.42 562.76 347.74 542.76 350.92 537.87C351.676 536.702 352.654 535.695 353.799 534.906C354.944 534.117 356.233 533.561 357.593 533.269C358.953 532.978 360.357 532.958 361.725 533.209C363.093 533.461 364.398 533.979 365.565 534.735C366.732 535.491 367.74 536.469 368.529 537.614C369.318 538.759 369.874 540.048 370.166 541.408C370.457 542.768 370.477 544.172 370.226 545.54C369.974 546.908 369.456 548.212 368.7 549.38Z" fill="#FC6681"/>
<path d="M367.93 604.72C362.71 607.35 342.8 605.53 342.8 605.53C342.8 605.53 353.18 588.45 358.4 585.81C359.645 585.151 361.009 584.746 362.412 584.621C363.815 584.495 365.229 584.651 366.571 585.078C367.914 585.506 369.157 586.197 370.229 587.112C371.301 588.026 372.179 589.145 372.813 590.403C373.447 591.661 373.824 593.032 373.921 594.438C374.018 595.843 373.834 597.254 373.379 598.587C372.925 599.92 372.208 601.15 371.273 602.203C370.337 603.256 369.201 604.112 367.93 604.72Z" fill="#FC6681"/>
<path d="M357.92 646.47C353.22 649.94 333.29 651.47 333.29 651.47C333.29 651.47 340.63 632.88 345.29 629.4C346.399 628.491 347.682 627.816 349.06 627.418C350.438 627.019 351.883 626.904 353.306 627.081C354.73 627.257 356.103 627.721 357.342 628.444C358.581 629.167 359.66 630.135 360.514 631.288C361.367 632.44 361.978 633.755 362.309 635.151C362.639 636.547 362.682 637.995 362.436 639.408C362.19 640.822 361.659 642.17 360.876 643.372C360.093 644.574 359.073 645.604 357.88 646.4L357.92 646.47Z" fill="#FC6681"/>
<path d="M325.19 563.89C329.38 567.97 348.92 572.19 348.92 572.19C348.92 572.19 344.13 552.78 339.92 548.71C337.907 546.754 335.199 545.678 332.393 545.718C329.587 545.758 326.911 546.912 324.955 548.925C322.999 550.938 321.923 553.646 321.963 556.452C322.003 559.259 323.157 561.934 325.17 563.89H325.19Z" fill="#FC6681"/>
<path d="M314.1 612.86C319.32 615.5 339.23 613.68 339.23 613.68C339.23 613.68 328.85 596.59 323.63 593.96C321.124 592.696 318.218 592.48 315.552 593.359C312.886 594.237 310.679 596.139 309.415 598.645C308.151 601.151 307.935 604.057 308.813 606.723C309.692 609.389 311.594 611.596 314.1 612.86Z" fill="#FC6681"/>
<path d="M309.86 661.94C314.52 665.42 334.52 667.02 334.52 667.02C334.52 667.02 327.18 648.42 322.52 644.95C321.411 644.041 320.128 643.366 318.75 642.967C317.372 642.569 315.927 642.454 314.504 642.631C313.08 642.807 311.707 643.271 310.468 643.994C309.229 644.717 308.15 645.685 307.296 646.838C306.443 647.99 305.832 649.305 305.501 650.701C305.171 652.097 305.128 653.545 305.374 654.958C305.62 656.372 306.151 657.72 306.934 658.922C307.717 660.124 308.737 661.154 309.93 661.95L309.86 661.94Z" fill="#FC6681"/>
<path d="M305.57 688.46C305.57 688.46 322.68 685.06 327.24 680.53C331.8 676 352.34 668.07 354.62 673.74C356.9 679.41 385.42 698.65 366.03 702.05C346.64 705.45 320.4 706.58 314.69 704.32C308.98 702.06 305.57 688.46 305.57 688.46Z" fill="#A8A8A8"/>
<path opacity="0.2" d="M366.03 699.95C346.63 703.34 320.4 704.48 314.69 702.21C310.35 700.49 307.33 692.21 306.14 688.34L305.57 688.46C305.57 688.46 308.99 702.05 314.69 704.32C320.39 706.59 346.63 705.45 366.03 702.05C371.62 701.05 373.22 698.77 372.62 695.85C372.14 697.75 370.19 699.22 366.03 699.95Z" fill="black"/>
<g opacity="0.05">
<path opacity="0.05" d="M530.79 419.48C528.4 419.28 526.02 419.09 523.62 419C518.27 418.81 510.09 419 504.52 414.9L506.47 414.56C512.04 418.99 520.54 418.8 526.05 419C528.44 419.09 530.83 419.28 533.22 419.48C534 419.55 534.8 419.59 535.61 419.61C534.002 419.653 532.393 419.609 530.79 419.48Z" fill="black"/>
<path opacity="0.05" d="M544.13 480.44V480.55H542.82C543.33 480.51 543.75 480.48 544.13 480.44Z" fill="black"/>
</g>
<path d="M506.47 414.56L506.39 418.22L505.57 414.72L506.47 414.56Z" fill="#FDC2CC"/>
<path opacity="0.05" d="M506.47 414.56L506.39 418.22L505.57 414.72L506.47 414.56Z" fill="black"/>
<path d="M1044.02 519C1095.07 519 1136.46 477.613 1136.46 426.559C1136.46 375.506 1095.07 334.119 1044.02 334.119C992.967 334.119 951.58 375.506 951.58 426.559C951.58 477.613 992.967 519 1044.02 519Z" fill="#38D438"/>
<path d="M945.711 493.744C996.765 493.744 1038.15 452.357 1038.15 401.304C1038.15 350.251 996.765 308.864 945.711 308.864C894.658 308.864 853.271 350.251 853.271 401.304C853.271 452.357 894.658 493.744 945.711 493.744Z" fill="#38D438"/>
<path d="M837.492 494.649C888.546 494.649 929.932 453.262 929.932 402.208C929.932 351.155 888.546 309.768 837.492 309.768C786.439 309.768 745.052 351.155 745.052 402.208C745.052 453.262 786.439 494.649 837.492 494.649Z" fill="#38D438"/>
<path d="M802.317 519C853.371 519 894.758 477.613 894.758 426.559C894.758 375.506 853.371 334.119 802.317 334.119C751.264 334.119 709.877 375.506 709.877 426.559C709.877 477.613 751.264 519 802.317 519Z" fill="#38D438"/>
<path d="M742.791 527.12C793.845 527.12 835.232 485.733 835.232 434.68C835.232 383.626 793.845 342.239 742.791 342.239C691.738 342.239 650.351 383.626 650.351 434.68C650.351 485.733 691.738 527.12 742.791 527.12Z" fill="#38D438"/>
<path d="M718.44 454.066C769.494 454.066 810.88 412.679 810.88 361.626C810.88 310.573 769.494 269.186 718.44 269.186C667.387 269.186 626 310.573 626 361.626C626 412.679 667.387 454.066 718.44 454.066Z" fill="#38D438"/>
<path d="M745.495 369.285C796.548 369.285 837.935 327.898 837.935 276.845C837.935 225.791 796.548 184.404 745.495 184.404C694.442 184.404 653.055 225.791 653.055 276.845C653.055 327.898 694.442 369.285 745.495 369.285Z" fill="#38D438"/>
<path d="M796.901 369.285C847.954 369.285 889.341 327.898 889.341 276.845C889.341 225.791 847.954 184.404 796.901 184.404C745.848 184.404 704.461 225.791 704.461 276.845C704.461 327.898 745.848 369.285 796.901 369.285Z" fill="#38D438"/>
<path d="M826.668 331.406C877.722 331.406 919.109 290.02 919.109 238.966C919.109 187.913 877.722 146.526 826.668 146.526C775.615 146.526 734.228 187.913 734.228 238.966C734.228 290.02 775.615 331.406 826.668 331.406Z" fill="#38D438"/>
<path d="M902.425 372.893C953.479 372.893 994.866 331.506 994.866 280.453C994.866 229.399 953.479 188.012 902.425 188.012C851.372 188.012 809.985 229.399 809.985 280.453C809.985 331.506 851.372 372.893 902.425 372.893Z" fill="#38D438"/>
<path d="M1079.19 454.066C1130.25 454.066 1171.64 412.679 1171.64 361.626C1171.64 310.573 1130.25 269.186 1079.19 269.186C1028.14 269.186 986.755 310.573 986.755 361.626C986.755 412.679 1028.14 454.066 1079.19 454.066Z" fill="#38D438"/>
<path d="M1025.98 408.068C1077.03 408.068 1118.42 366.681 1118.42 315.627C1118.42 264.574 1077.03 223.187 1025.98 223.187C974.927 223.187 933.54 264.574 933.54 315.627C933.54 366.681 974.927 408.068 1025.98 408.068Z" fill="#38D438"/>
<path d="M991.71 362.069C1042.76 362.069 1084.15 320.682 1084.15 269.629C1084.15 218.576 1042.76 177.189 991.71 177.189C940.657 177.189 899.27 218.576 899.27 269.629C899.27 320.682 940.657 362.069 991.71 362.069Z" fill="#38D438"/>
<path d="M926.777 292.624C977.83 292.624 1019.22 251.237 1019.22 200.183C1019.22 149.13 977.83 107.743 926.777 107.743C875.723 107.743 834.336 149.13 834.336 200.183C834.336 251.237 875.723 292.624 926.777 292.624Z" fill="#38D438"/>
<path d="M1047.63 369.285C1098.68 369.285 1140.07 327.898 1140.07 276.845C1140.07 225.791 1098.68 184.404 1047.63 184.404C996.575 184.404 955.188 225.791 955.188 276.845C955.188 327.898 996.575 369.285 1047.63 369.285Z" fill="#38D438"/>
<g opacity="0.1">
<path opacity="0.1" d="M1044.02 519C1095.07 519 1136.46 477.613 1136.46 426.559C1136.46 375.506 1095.07 334.119 1044.02 334.119C992.967 334.119 951.58 375.506 951.58 426.559C951.58 477.613 992.967 519 1044.02 519Z" fill="black"/>
<path opacity="0.1" d="M945.711 493.744C996.765 493.744 1038.15 452.357 1038.15 401.304C1038.15 350.251 996.765 308.864 945.711 308.864C894.658 308.864 853.271 350.251 853.271 401.304C853.271 452.357 894.658 493.744 945.711 493.744Z" fill="black"/>
<path opacity="0.1" d="M837.492 494.649C888.546 494.649 929.932 453.262 929.932 402.208C929.932 351.155 888.546 309.768 837.492 309.768C786.439 309.768 745.052 351.155 745.052 402.208C745.052 453.262 786.439 494.649 837.492 494.649Z" fill="black"/>
<path opacity="0.1" d="M802.317 519C853.371 519 894.758 477.613 894.758 426.559C894.758 375.506 853.371 334.119 802.317 334.119C751.264 334.119 709.877 375.506 709.877 426.559C709.877 477.613 751.264 519 802.317 519Z" fill="black"/>
<path opacity="0.1" d="M742.791 527.12C793.845 527.12 835.232 485.733 835.232 434.68C835.232 383.626 793.845 342.239 742.791 342.239C691.738 342.239 650.351 383.626 650.351 434.68C650.351 485.733 691.738 527.12 742.791 527.12Z" fill="black"/>
<path opacity="0.1" d="M718.44 454.066C769.494 454.066 810.88 412.679 810.88 361.626C810.88 310.573 769.494 269.186 718.44 269.186C667.387 269.186 626 310.573 626 361.626C626 412.679 667.387 454.066 718.44 454.066Z" fill="black"/>
<path opacity="0.1" d="M745.495 369.285C796.548 369.285 837.935 327.898 837.935 276.845C837.935 225.791 796.548 184.405 745.495 184.405C694.442 184.405 653.055 225.791 653.055 276.845C653.055 327.898 694.442 369.285 745.495 369.285Z" fill="black"/>
<path opacity="0.1" d="M796.901 369.285C847.954 369.285 889.341 327.898 889.341 276.845C889.341 225.791 847.954 184.405 796.901 184.405C745.848 184.405 704.461 225.791 704.461 276.845C704.461 327.898 745.848 369.285 796.901 369.285Z" fill="black"/>
<path opacity="0.1" d="M826.668 331.406C877.722 331.406 919.109 290.02 919.109 238.966C919.109 187.913 877.722 146.526 826.668 146.526C775.615 146.526 734.228 187.913 734.228 238.966C734.228 290.02 775.615 331.406 826.668 331.406Z" fill="black"/>
<path opacity="0.1" d="M902.426 372.893C953.479 372.893 994.866 331.506 994.866 280.453C994.866 229.399 953.479 188.012 902.426 188.012C851.372 188.012 809.985 229.399 809.985 280.453C809.985 331.506 851.372 372.893 902.426 372.893Z" fill="black"/>
<path opacity="0.1" d="M1079.19 454.066C1130.25 454.066 1171.64 412.679 1171.64 361.626C1171.64 310.573 1130.25 269.186 1079.19 269.186C1028.14 269.186 986.755 310.573 986.755 361.626C986.755 412.679 1028.14 454.066 1079.19 454.066Z" fill="black"/>
<path opacity="0.1" d="M1025.98 408.068C1077.03 408.068 1118.42 366.681 1118.42 315.627C1118.42 264.574 1077.03 223.187 1025.98 223.187C974.927 223.187 933.54 264.574 933.54 315.627C933.54 366.681 974.927 408.068 1025.98 408.068Z" fill="black"/>
<path opacity="0.1" d="M991.71 362.069C1042.76 362.069 1084.15 320.682 1084.15 269.629C1084.15 218.576 1042.76 177.189 991.71 177.189C940.657 177.189 899.27 218.576 899.27 269.629C899.27 320.682 940.657 362.069 991.71 362.069Z" fill="black"/>
<path opacity="0.1" d="M926.777 292.624C977.83 292.624 1019.22 251.237 1019.22 200.183C1019.22 149.13 977.83 107.743 926.777 107.743C875.723 107.743 834.336 149.13 834.336 200.183C834.336 251.237 875.723 292.624 926.777 292.624Z" fill="black"/>
<path opacity="0.1" d="M1047.63 369.285C1098.68 369.285 1140.07 327.898 1140.07 276.845C1140.07 225.791 1098.68 184.405 1047.63 184.405C996.575 184.405 955.188 225.791 955.188 276.845C955.188 327.898 996.575 369.285 1047.63 369.285Z" fill="black"/>
</g>
<path d="M998.365 588.554C998.365 588.554 1054.88 541.054 1026.92 473.417L998.962 462.946L968.625 556.345L998.365 588.554Z" fill="#684500"/>
<path opacity="0.1" d="M1001.38 459.727L1008.07 462.232L978.282 553.93L1004.27 582.07C1002.12 584.213 1000.78 585.334 1000.78 585.334L971.03 553.126L1001.38 459.727Z" fill="black"/>
<path d="M1105.41 578.589C1105.41 578.589 1087.03 596.972 1097.41 624.253C1107.79 651.534 1079.62 696.89 1079.62 696.89L1080.52 696.746C1118.28 690.081 1137.04 646.904 1116.04 614.822C1108.19 602.913 1101.78 588.915 1105.41 578.589Z" fill="#38D438"/>
<path d="M1105.41 578.589C1105.41 578.589 1095.03 601.122 1105.41 619.506C1115.79 637.889 1107.22 689.476 1079.61 696.89" stroke="#535461" stroke-miterlimit="10"/>
<path d="M1138.15 652.944C1138.15 652.944 1117.17 649.608 1115.27 668.407C1113.36 687.206 1074.92 689.81 1074.92 689.81L1075.64 690.289C1107.37 711.087 1137.7 703.554 1133.12 675.903C1131.43 665.622 1131.57 655.295 1138.15 652.944Z" fill="#38D438"/>
<path opacity="0.2" d="M1138.15 652.944C1138.15 652.944 1117.17 649.608 1115.27 668.407C1113.36 687.206 1074.92 689.81 1074.92 689.81L1075.64 690.289C1107.37 711.087 1137.7 703.554 1133.12 675.903C1131.43 665.622 1131.57 655.295 1138.15 652.944Z" fill="#F5F5F5"/>
<path d="M1138.15 652.944C1138.15 652.944 1121.87 656.561 1123.2 671.327C1124.53 686.094 1099.02 703.88 1074.93 689.81" stroke="#535461" stroke-miterlimit="10"/>
<path d="M743.135 489.621L750.477 519.009C750.477 519.009 802.353 525.772 836.941 521.522C843.055 520.655 848.925 518.537 854.184 515.301C857.105 513.574 861.717 512.824 868.019 517.544C878.816 525.682 931.804 590.787 923.223 658.334C922.557 663.423 920.232 668.151 916.608 671.787C912.984 675.422 908.263 677.762 903.176 678.444C892.609 679.884 882.508 683.706 873.635 689.62L847.412 707.081L1116.29 701.204L1088.37 667.412C1088.37 667.412 1069.28 651.253 1054.58 649.78C1050.3 649.355 1046.76 645.421 1043.9 640.077C1027.17 608.745 1007.15 579.285 985.443 551.154C969.637 530.664 956.372 509.071 957.611 495.507C960.55 463.181 957.611 410.292 957.611 410.292L901.783 402.95C901.783 402.95 909.126 473.48 841.543 491.104C773.96 508.727 743.135 489.621 743.135 489.621Z" fill="#684500"/>
<g opacity="0.1">
<path opacity="0.1" d="M788.681 502.85C788.681 502.85 819.534 521.947 887.126 504.315C954.717 486.682 947.366 416.161 947.366 416.161L957.991 417.544C957.792 413.023 957.638 410.31 957.638 410.31L901.811 402.968C901.811 402.968 909.153 473.498 841.57 491.122C773.987 508.746 743.126 489.657 743.126 489.657L750.468 519.045C750.468 519.045 770.289 521.631 793.6 522.598L788.681 502.85Z" fill="black"/>
<path opacity="0.1" d="M919.181 702.84C928.055 696.925 938.156 693.104 948.722 691.664C953.799 690.99 958.511 688.663 962.133 685.043C965.755 681.423 968.084 676.711 968.76 671.635C977.387 604.088 924.371 538.866 913.602 530.764C901.847 521.947 895.969 532.229 895.969 532.229C891.809 533.32 887.58 534.127 883.31 534.643C902.353 559.962 929.598 608.528 923.223 658.406C922.546 663.482 920.217 668.194 916.596 671.814C912.974 675.434 908.261 677.761 903.185 678.435C892.618 679.875 882.517 683.696 873.643 689.611L847.421 707.072L915.021 705.598L919.181 702.84Z" fill="black"/>
</g>
<path d="M946.064 694.657C946.064 694.657 977.197 688.427 985.507 680.126C993.817 671.825 1031.17 657.294 1035.32 667.674C1039.47 678.055 1091.38 713.339 1056.12 719.569C1020.85 725.799 973.092 727.87 962.711 723.719C952.33 719.569 946.064 694.657 946.064 694.657Z" fill="#A8A8A8"/>
<path opacity="0.2" d="M1056.08 715.708C1020.82 721.938 973.055 724.009 962.675 719.858C954.772 716.693 949.274 701.502 947.104 694.44L946.064 694.657C946.064 694.657 952.294 719.569 962.666 723.719C973.037 727.87 1020.79 725.799 1056.07 719.569C1066.26 717.76 1069.18 713.547 1068.07 708.212C1067.21 711.693 1063.66 714.378 1056.08 715.708Z" fill="black"/>
<path d="M1106.12 694.774C1106.12 694.774 1121.59 691.7 1125.72 687.604C1129.84 683.508 1148.41 676.337 1150.48 681.455C1152.54 686.573 1178.33 703.989 1160.79 707.054C1143.26 710.119 1119.53 711.15 1114.38 709.107C1109.22 707.063 1106.12 694.774 1106.12 694.774Z" fill="#A8A8A8"/>
<path opacity="0.2" d="M1160.82 705.164C1143.29 708.239 1119.56 709.26 1114.41 707.217C1110.48 705.652 1107.75 698.174 1106.67 694.675L1106.15 694.784C1106.15 694.784 1109.24 707.072 1114.41 709.125C1119.57 711.177 1143.29 710.147 1160.82 707.072C1165.88 706.168 1167.33 704.106 1166.79 701.466C1166.33 703.175 1164.56 704.504 1160.82 705.164Z" fill="black"/>
<path d="M1044.02 498.256C1095.07 498.256 1136.46 456.87 1136.46 405.816C1136.46 354.763 1095.07 313.376 1044.02 313.376C992.967 313.376 951.58 354.763 951.58 405.816C951.58 456.87 992.967 498.256 1044.02 498.256Z" fill="#38D438"/>
<path d="M945.711 473.001C996.765 473.001 1038.15 431.614 1038.15 380.561C1038.15 329.507 996.765 288.12 945.711 288.12C894.658 288.12 853.271 329.507 853.271 380.561C853.271 431.614 894.658 473.001 945.711 473.001Z" fill="#38D438"/>
<path d="M837.492 473.905C888.546 473.905 929.932 432.518 929.932 381.465C929.932 330.412 888.546 289.025 837.492 289.025C786.439 289.025 745.052 330.412 745.052 381.465C745.052 432.518 786.439 473.905 837.492 473.905Z" fill="#38D438"/>
<path d="M802.317 498.256C853.371 498.256 894.758 456.87 894.758 405.816C894.758 354.763 853.371 313.376 802.317 313.376C751.264 313.376 709.877 354.763 709.877 405.816C709.877 456.87 751.264 498.256 802.317 498.256Z" fill="#38D438"/>
<path d="M742.791 506.376C793.845 506.376 835.232 464.99 835.232 413.936C835.232 362.883 793.845 321.496 742.791 321.496C691.738 321.496 650.351 362.883 650.351 413.936C650.351 464.99 691.738 506.376 742.791 506.376Z" fill="#38D438"/>
<path d="M718.44 433.323C769.494 433.323 810.88 391.936 810.88 340.883C810.88 289.83 769.494 248.443 718.44 248.443C667.387 248.443 626 289.83 626 340.883C626 391.936 667.387 433.323 718.44 433.323Z" fill="#38D438"/>
<path d="M745.495 348.542C796.548 348.542 837.935 307.155 837.935 256.102C837.935 205.048 796.548 163.661 745.495 163.661C694.442 163.661 653.055 205.048 653.055 256.102C653.055 307.155 694.442 348.542 745.495 348.542Z" fill="#38D438"/>
<path d="M796.901 348.542C847.954 348.542 889.341 307.155 889.341 256.102C889.341 205.048 847.954 163.661 796.901 163.661C745.848 163.661 704.461 205.048 704.461 256.102C704.461 307.155 745.848 348.542 796.901 348.542Z" fill="#38D438"/>
<path d="M826.668 310.663C877.722 310.663 919.109 269.276 919.109 218.223C919.109 167.17 877.722 125.783 826.668 125.783C775.615 125.783 734.228 167.17 734.228 218.223C734.228 269.276 775.615 310.663 826.668 310.663Z" fill="#38D438"/>
<path d="M902.425 352.15C953.479 352.15 994.866 310.763 994.866 259.709C994.866 208.656 953.479 167.269 902.425 167.269C851.372 167.269 809.985 208.656 809.985 259.709C809.985 310.763 851.372 352.15 902.425 352.15Z" fill="#38D438"/>
<path d="M1079.19 433.323C1130.25 433.323 1171.64 391.936 1171.64 340.883C1171.64 289.83 1130.25 248.443 1079.19 248.443C1028.14 248.443 986.755 289.83 986.755 340.883C986.755 391.936 1028.14 433.323 1079.19 433.323Z" fill="#38D438"/>
<path d="M1025.98 387.325C1077.03 387.325 1118.42 345.938 1118.42 294.884C1118.42 243.831 1077.03 202.444 1025.98 202.444C974.927 202.444 933.54 243.831 933.54 294.884C933.54 345.938 974.927 387.325 1025.98 387.325Z" fill="#38D438"/>
<path d="M991.71 341.326C1042.76 341.326 1084.15 299.939 1084.15 248.886C1084.15 197.832 1042.76 156.445 991.71 156.445C940.657 156.445 899.27 197.832 899.27 248.886C899.27 299.939 940.657 341.326 991.71 341.326Z" fill="#38D438"/>
<path d="M926.777 271.88C977.83 271.88 1019.22 230.494 1019.22 179.44C1019.22 128.387 977.83 87 926.777 87C875.723 87 834.336 128.387 834.336 179.44C834.336 230.494 875.723 271.88 926.777 271.88Z" fill="#38D438"/>
<path d="M1047.63 348.542C1098.68 348.542 1140.07 307.155 1140.07 256.102C1140.07 205.048 1098.68 163.661 1047.63 163.661C996.575 163.661 955.188 205.048 955.188 256.102C955.188 307.155 996.575 348.542 1047.63 348.542Z" fill="#38D438"/>
<path opacity="0.1" d="M1136.05 270.578C1136.05 270.578 1049.96 229.752 997.868 302.109L1136.05 270.578Z" fill="black"/>
<path opacity="0.1" d="M909.922 187.868C909.922 187.868 814.687 184.992 795.988 272.161L909.922 187.868Z" fill="black"/>
<path opacity="0.1" d="M791.539 376.998C791.539 376.998 705.446 336.163 653.353 408.502L791.539 376.998Z" fill="black"/>
<g opacity="0.05">
<path opacity="0.05" d="M943.885 614.541L942.339 614.026L935.213 605.806C935.353 605.417 935.369 604.994 935.258 604.595L943.885 614.541Z" fill="black"/>
<path opacity="0.05" d="M953.813 629.769C951.797 628.909 950.093 627.451 948.933 625.591C947.774 623.731 947.214 621.559 947.33 619.37C947.33 619.09 947.33 618.827 947.33 618.574L947.475 618.746L953.135 620.636C952.688 621.732 952.461 622.906 952.466 624.09C952.409 626.068 952.874 628.027 953.813 629.769Z" fill="black"/>
<path opacity="0.05" d="M952.719 709.351C954.591 705.092 958.145 700.643 961.879 696.691C971.081 687.102 976.92 674.783 978.517 661.589L978.671 660.26C986.221 652.709 1003.45 659.084 1003.45 659.084C1004.35 644.417 999.07 634.787 995.101 629.705L996.141 630.067C996.141 630.067 1010.06 640.683 1008.65 663.804C1008.65 663.804 991.466 657.475 983.87 664.98L983.716 666.309C982.12 679.503 976.281 691.822 967.078 701.411C963.326 705.354 959.79 709.794 957.919 714.071C957.919 714.071 946.417 710.779 938.369 701.918C942.706 705.175 947.556 707.687 952.719 709.351Z" fill="black"/>
</g>
<path d="M265.281 680.052C265.842 680.059 266.403 680.067 266.972 680.067C267.541 680.067 268.102 680.059 268.664 680.052C298.421 679.375 319.99 660.783 314.499 641.275L301.112 593.686L297.729 581.645L237.753 582.667L234.108 594.447L219.76 640.814C213.686 660.429 235.254 679.375 265.281 680.052Z" fill="#684500"/>
<path opacity="0.2" d="M234.108 594.447C244.335 600.293 255.935 603.304 267.714 603.17C279.492 603.037 291.022 599.763 301.112 593.686L297.729 581.645L237.753 582.667L234.108 594.447Z" fill="black"/>
<path d="M229.355 637.214C222.881 629.595 209.225 620.649 180.455 615.688C130.277 607.032 143.334 576.548 143.913 575.256C145.128 572.545 143.899 570.728 141.142 571.215C139.59 571.602 138.138 572.318 136.885 573.312C135.632 574.307 134.606 575.557 133.876 576.981C133.135 578.566 116.384 615.891 173.003 625.654C223.96 634.444 224.142 655.844 224.129 656.056C223.993 658.419 226.347 659.143 229.391 657.677C232.436 656.211 235.016 653.108 235.156 650.746C235.184 650.247 235.383 644.305 229.355 637.214Z" fill="#684500"/>
<g filter="url(#filter1_d)">
<path d="M294.653 686.987C295.562 686.987 296.462 686.808 297.302 686.461C298.141 686.113 298.904 685.603 299.547 684.961C300.19 684.318 300.699 683.555 301.047 682.715C301.395 681.876 301.574 680.976 301.574 680.067V650.079C301.572 648.245 300.842 646.487 299.544 645.191C298.246 643.895 296.487 643.167 294.653 643.167C292.82 643.167 291.061 643.895 289.763 645.191C288.465 646.487 287.735 648.245 287.733 650.079V680.067C287.733 680.976 287.912 681.876 288.26 682.715C288.608 683.555 289.117 684.318 289.76 684.961C290.403 685.603 291.166 686.113 292.005 686.461C292.845 686.808 293.745 686.987 294.653 686.987Z" fill="#684500"/>
</g>
<path d="M288.586 615.794C288.966 616.62 289.504 617.363 290.171 617.98C290.838 618.598 291.62 619.078 292.472 619.393C293.325 619.708 294.231 619.852 295.139 619.817C296.047 619.782 296.94 619.569 297.765 619.189L325.008 606.655C325.835 606.275 326.578 605.737 327.197 605.07C327.815 604.403 328.296 603.621 328.612 602.768C328.928 601.915 329.072 601.009 329.038 600.1C329.003 599.191 328.789 598.298 328.409 597.472C328.029 596.646 327.49 595.903 326.822 595.285C326.155 594.668 325.372 594.188 324.519 593.873C323.666 593.558 322.759 593.414 321.85 593.45C320.942 593.485 320.049 593.7 319.223 594.081L291.98 606.615C291.155 606.995 290.412 607.534 289.794 608.201C289.177 608.867 288.697 609.649 288.382 610.502C288.067 611.354 287.922 612.26 287.957 613.168C287.992 614.076 288.206 614.969 288.586 615.794Z" fill="#684500"/>
<path d="M245.359 615.794C244.979 616.62 244.44 617.363 243.773 617.98C243.106 618.598 242.324 619.078 241.472 619.393C240.62 619.708 239.713 619.852 238.805 619.817C237.897 619.782 237.005 619.569 236.179 619.189L208.936 606.655C208.11 606.275 207.366 605.737 206.748 605.07C206.129 604.403 205.648 603.621 205.333 602.768C205.017 601.915 204.872 601.009 204.907 600.1C204.942 599.191 205.155 598.298 205.535 597.472C205.915 596.646 206.455 595.903 207.122 595.285C207.79 594.668 208.572 594.188 209.425 593.873C210.278 593.558 211.185 593.414 212.094 593.45C213.003 593.485 213.895 593.7 214.721 594.081L241.964 606.615C242.79 606.995 243.533 607.534 244.15 608.201C244.767 608.867 245.247 609.649 245.563 610.502C245.878 611.354 246.022 612.26 245.987 613.168C245.952 614.076 245.738 614.969 245.359 615.794Z" fill="#684500"/>
<g filter="url(#filter2_d)">
<path d="M239.291 686.987C238.382 686.987 237.482 686.808 236.643 686.461C235.803 686.113 235.04 685.603 234.397 684.961C233.755 684.318 233.245 683.555 232.897 682.715C232.55 681.876 232.371 680.976 232.371 680.067V650.079C232.373 648.245 233.103 646.487 234.4 645.191C235.698 643.895 237.457 643.167 239.291 643.167C241.125 643.167 242.884 643.895 244.181 645.191C245.479 646.487 246.209 648.245 246.211 650.079V680.067C246.211 680.976 246.032 681.876 245.685 682.715C245.337 683.555 244.827 684.318 244.184 684.961C243.542 685.603 242.779 686.113 241.939 686.461C241.1 686.808 240.2 686.987 239.291 686.987Z" fill="#684500"/>
</g>
<path d="M322.34 490.91C322.738 489.798 322.842 488.601 322.641 487.437L318.875 465.28L315.108 443.123C314.905 441.926 314.39 440.805 313.616 439.87C312.842 438.936 311.835 438.222 310.697 437.8C309.56 437.378 308.331 437.263 307.134 437.466C305.938 437.669 304.816 438.184 303.882 438.958L286.577 453.299L276.534 461.621C269.547 460.595 262.44 460.702 255.487 461.938L245.061 453.299L227.756 438.958C226.821 438.184 225.699 437.669 224.503 437.466C223.307 437.263 222.078 437.378 220.94 437.8C219.803 438.222 218.796 438.936 218.022 439.87C217.247 440.805 216.733 441.926 216.529 443.123L212.763 465.28L208.997 487.437C208.83 488.384 208.867 489.356 209.104 490.288C209.34 491.22 209.772 492.092 210.37 492.845C204.253 502.96 200.959 514.529 200.83 526.348C200.701 538.168 203.742 549.806 209.637 560.051C215.531 570.297 224.064 578.776 234.347 584.605C244.63 590.434 256.287 593.401 268.105 593.197C279.924 592.993 291.472 589.625 301.547 583.444C311.622 577.263 319.857 568.494 325.394 558.051C330.931 547.608 333.569 535.872 333.031 524.064C332.494 512.256 328.802 500.808 322.34 490.91H322.34Z" fill="#684500"/>
<path d="M303.444 448.83L282.459 466.22L282.458 466.22C281.996 466.604 281.642 467.102 281.434 467.665C281.225 468.228 281.168 468.837 281.268 469.429C281.369 470.021 281.624 470.576 282.007 471.039C282.39 471.502 282.889 471.855 283.452 472.064L309.005 481.543C309.568 481.752 310.177 481.809 310.769 481.709C311.361 481.608 311.917 481.353 312.379 480.97C312.842 480.587 313.196 480.088 313.405 479.525C313.613 478.962 313.671 478.353 313.57 477.761L309.003 450.892C308.905 450.298 308.651 449.741 308.268 449.278C307.884 448.815 307.383 448.462 306.818 448.256C306.434 448.113 306.027 448.039 305.616 448.038C304.822 448.04 304.053 448.32 303.444 448.83Z" fill="#E6E6E6"/>
<path d="M224.819 448.256C224.254 448.462 223.754 448.815 223.37 449.278C222.986 449.741 222.732 450.298 222.635 450.892L218.068 477.761C217.967 478.353 218.024 478.962 218.233 479.525C218.442 480.088 218.796 480.587 219.258 480.97C219.721 481.353 220.276 481.608 220.869 481.709C221.461 481.809 222.069 481.752 222.632 481.543L248.186 472.064C248.749 471.855 249.247 471.502 249.63 471.039C250.014 470.576 250.269 470.021 250.369 469.429C250.47 468.837 250.413 468.228 250.204 467.665C249.995 467.102 249.642 466.604 249.179 466.22L228.193 448.83C227.584 448.32 226.816 448.04 226.021 448.038C225.611 448.039 225.204 448.113 224.819 448.256Z" fill="#E6E6E6"/>
<path d="M267 561C274.732 561 281 554.956 281 547.5C281 540.044 274.732 534 267 534C259.268 534 253 540.044 253 547.5C253 554.956 259.268 561 267 561Z" fill="#E6E6E6"/>
<path d="M267.5 577C266.646 577 265.801 576.835 265.013 576.515C264.224 576.195 263.507 575.726 262.904 575.135C262.3 574.543 261.821 573.841 261.495 573.069C261.168 572.296 261 571.468 261 570.632V555H274V570.632C274 571.468 273.832 572.296 273.505 573.069C273.179 573.841 272.7 574.543 272.096 575.135C271.493 575.726 270.776 576.195 269.987 576.515C269.199 576.835 268.354 577 267.5 577Z" fill="#FF6584"/>
<path d="M266.459 437C266.902 437.92 267.333 438.849 267.738 439.798C272.51 450.927 274.119 463.157 272.389 475.142C271.523 473.886 270.613 472.577 269.688 471.254C271.67 459.752 270.555 447.929 266.459 437Z" fill="#3F3D56"/>
<path d="M259.538 445.458C259.982 446.378 260.413 447.308 260.818 448.256C265.59 459.386 267.199 471.616 265.468 483.6C264.603 482.344 263.693 481.036 262.767 479.713C264.749 468.21 263.635 456.388 259.538 445.458Z" fill="#3F3D56"/>
<path d="M238.203 476.947L239.177 464.549L240.152 452.151C240.205 451.482 240.433 450.838 240.813 450.285C241.194 449.731 241.713 449.288 242.319 448.998C242.925 448.709 243.596 448.585 244.266 448.638C244.935 448.69 245.579 448.918 246.132 449.298L256.382 456.342L263.867 461.485C264.345 460.925 264.939 460.475 265.608 460.167C266.277 459.858 267.005 459.699 267.741 459.699C268.478 459.699 269.205 459.858 269.874 460.167C270.543 460.475 271.137 460.925 271.616 461.485L279.1 456.342L289.35 449.298C289.903 448.918 290.547 448.69 291.217 448.638C291.886 448.585 292.557 448.709 293.163 448.998C293.77 449.288 294.289 449.731 294.669 450.285C295.049 450.838 295.277 451.482 295.33 452.151L296.305 464.549L297.28 476.947C297.332 477.617 297.208 478.288 296.919 478.894C296.63 479.5 296.186 480.02 295.633 480.4C295.079 480.78 294.435 481.008 293.766 481.061C293.097 481.113 292.425 480.989 291.819 480.7L280.595 475.345L271.372 470.945C270.897 471.426 270.332 471.808 269.709 472.068C269.085 472.329 268.417 472.463 267.741 472.463C267.066 472.463 266.397 472.329 265.773 472.068C265.15 471.808 264.585 471.426 264.11 470.945L254.888 475.345L243.663 480.7C243.057 480.989 242.386 481.113 241.716 481.061C241.047 481.008 240.403 480.78 239.85 480.4C239.296 480.02 238.853 479.5 238.564 478.894C238.274 478.288 238.15 477.617 238.203 476.947Z" fill="#D43838"/>
<path d="M282 532.21C282 533.987 283.567 532.21 285.5 532.21C287.433 532.21 289 533.987 289 532.21C288.998 531.358 288.628 530.542 287.972 529.94C287.316 529.338 286.427 529 285.5 529C284.573 529 283.684 529.338 283.028 529.94C282.372 530.542 282.002 531.358 282 532.21Z" fill="#E6E6E6"/>
<path d="M252 532.21C252 533.987 250.433 532.21 248.5 532.21C246.567 532.21 245 533.987 245 532.21C245.002 531.358 245.372 530.542 246.028 529.94C246.684 529.338 247.573 529 248.5 529C249.427 529 250.316 529.338 250.972 529.94C251.628 530.542 251.998 531.358 252 532.21Z" fill="#E6E6E6"/>
<path d="M267.855 551.594C267.465 552.235 266.535 552.235 266.145 551.594L259.263 540.269C258.858 539.603 259.338 538.75 260.118 538.75H273.882C274.662 538.75 275.142 539.603 274.737 540.269L267.855 551.594Z" fill="#3F3D56"/>
</g>
<path d="M1201.8 768.052C1201.24 768.059 1200.68 768.067 1200.11 768.067C1199.54 768.067 1198.98 768.059 1198.42 768.052C1168.66 767.375 1147.09 748.782 1152.58 729.275L1165.97 681.686L1169.35 669.645L1229.33 670.667L1232.97 682.447L1247.32 728.814C1253.39 748.429 1231.83 767.375 1201.8 768.052Z" fill="#684500"/>
<path opacity="0.2" d="M1232.97 682.447C1222.75 688.293 1211.14 691.304 1199.37 691.17C1187.59 691.037 1176.06 687.763 1165.97 681.686L1169.35 669.645L1229.33 670.667L1232.97 682.447Z" fill="black"/>
<path d="M1230.44 730.854C1233.03 721.198 1241.55 707.269 1265.43 690.474C1307.07 661.18 1282.23 639.215 1281.15 638.294C1278.89 636.364 1279.23 634.196 1281.93 633.456C1283.5 633.142 1285.12 633.168 1286.67 633.53C1288.23 633.893 1289.69 634.585 1290.96 635.559C1292.31 636.674 1323.42 663.242 1276.43 696.293C1234.13 726.042 1243.12 745.462 1243.23 745.648C1244.36 747.725 1242.54 749.387 1239.16 749.365C1235.78 749.342 1232.12 747.642 1230.99 745.567C1230.75 745.128 1228.03 739.843 1230.44 730.854Z" fill="#684500"/>
<g filter="url(#filter3_d)">
<path d="M1172.43 774.987C1171.52 774.987 1170.62 774.808 1169.78 774.461C1168.94 774.113 1168.18 773.603 1167.53 772.961C1166.89 772.318 1166.38 771.555 1166.03 770.715C1165.69 769.876 1165.51 768.976 1165.51 768.067V738.079C1165.51 736.244 1166.24 734.483 1167.53 733.186C1168.83 731.888 1170.59 731.159 1172.43 731.159C1174.26 731.159 1176.02 731.888 1177.32 733.186C1178.62 734.483 1179.35 736.244 1179.35 738.079V768.067C1179.35 768.976 1179.17 769.876 1178.82 770.715C1178.47 771.555 1177.96 772.318 1177.32 772.961C1176.68 773.603 1175.91 774.113 1175.07 774.461C1174.24 774.808 1173.34 774.987 1172.43 774.987Z" fill="#684500"/>
</g>
<path d="M1178.49 703.794C1178.11 704.62 1177.58 705.363 1176.91 705.98C1176.24 706.597 1175.46 707.077 1174.61 707.393C1173.75 707.708 1172.85 707.852 1171.94 707.817C1171.03 707.782 1170.14 707.569 1169.31 707.189L1142.07 694.655C1140.41 693.886 1139.11 692.488 1138.48 690.767C1137.84 689.047 1137.92 687.144 1138.68 685.478C1139.45 683.812 1140.85 682.518 1142.57 681.881C1144.29 681.244 1146.19 681.316 1147.86 682.081L1175.1 694.615C1175.93 694.995 1176.67 695.534 1177.29 696.2C1177.9 696.867 1178.38 697.649 1178.7 698.502C1179.01 699.354 1179.16 700.26 1179.12 701.168C1179.09 702.076 1178.87 702.969 1178.49 703.794Z" fill="#684500"/>
<path d="M1221.72 703.794C1222.1 704.62 1222.64 705.363 1223.31 705.98C1223.97 706.597 1224.76 707.078 1225.61 707.393C1226.46 707.708 1227.37 707.852 1228.27 707.817C1229.18 707.782 1230.08 707.569 1230.9 707.189L1258.14 694.655C1259.81 693.887 1261.11 692.489 1261.74 690.768C1262.38 689.046 1262.31 687.143 1261.54 685.475C1260.77 683.808 1259.37 682.514 1257.65 681.877C1255.93 681.24 1254.03 681.314 1252.36 682.081L1225.12 694.615C1224.29 694.995 1223.55 695.534 1222.93 696.2C1222.31 696.867 1221.83 697.649 1221.52 698.502C1221.2 699.354 1221.06 700.26 1221.09 701.168C1221.13 702.076 1221.34 702.969 1221.72 703.794Z" fill="#684500"/>
<g filter="url(#filter4_d)">
<path d="M1227.79 774.987C1228.7 774.987 1229.6 774.808 1230.44 774.461C1231.28 774.113 1232.04 773.603 1232.68 772.961C1233.33 772.318 1233.83 771.555 1234.18 770.715C1234.53 769.876 1234.71 768.976 1234.71 768.067V738.079C1234.71 736.244 1233.98 734.483 1232.68 733.186C1231.38 731.888 1229.62 731.159 1227.79 731.159C1225.95 731.159 1224.19 731.888 1222.9 733.186C1221.6 734.483 1220.87 736.244 1220.87 738.079V768.067C1220.87 768.976 1221.05 769.876 1221.4 770.715C1221.74 771.555 1222.25 772.318 1222.9 772.961C1223.54 773.603 1224.3 774.113 1225.14 774.461C1225.98 774.808 1226.88 774.987 1227.79 774.987Z" fill="#684500"/>
</g>
<path d="M1256.71 580.845C1257.31 580.092 1257.74 579.22 1257.98 578.288C1258.21 577.356 1258.25 576.384 1258.08 575.437L1254.32 553.28L1250.55 531.123C1250.35 529.926 1249.83 528.805 1249.06 527.87C1248.28 526.936 1247.28 526.222 1246.14 525.8C1245 525.378 1243.77 525.263 1242.58 525.466C1241.38 525.669 1240.26 526.184 1239.32 526.958L1222.02 541.299L1211.59 549.938C1204.64 548.702 1197.53 548.595 1190.55 549.621L1180.5 541.299L1163.2 526.958C1162.26 526.184 1161.14 525.669 1159.95 525.466C1158.75 525.263 1157.52 525.378 1156.38 525.8C1155.24 526.222 1154.24 526.936 1153.46 527.87C1152.69 528.805 1152.18 529.926 1151.97 531.123L1148.21 553.28L1144.44 575.437C1144.24 576.601 1144.34 577.798 1144.74 578.911C1138.29 588.806 1134.6 600.249 1134.07 612.052C1133.53 623.854 1136.17 635.583 1141.71 646.02C1147.25 656.456 1155.48 665.219 1165.55 671.395C1175.62 677.572 1187.16 680.937 1198.98 681.142C1210.79 681.346 1222.44 678.381 1232.72 672.556C1243 666.731 1251.53 658.258 1257.42 648.019C1263.31 637.78 1266.36 626.149 1266.23 614.335C1266.11 602.522 1262.82 590.957 1256.71 580.845Z" fill="#684500"/>
<path d="M1161.46 536.038C1161.05 536.039 1160.65 536.113 1160.26 536.256C1159.7 536.462 1159.2 536.815 1158.81 537.278C1158.43 537.741 1158.17 538.298 1158.08 538.892L1153.51 565.761C1153.41 566.353 1153.47 566.962 1153.68 567.525C1153.88 568.088 1154.24 568.587 1154.7 568.97C1155.16 569.353 1155.72 569.608 1156.31 569.709C1156.9 569.809 1157.51 569.752 1158.07 569.543L1183.63 560.064C1184.19 559.855 1184.69 559.502 1185.07 559.039C1185.46 558.576 1185.71 558.021 1185.81 557.429C1185.91 556.837 1185.86 556.229 1185.65 555.665C1185.44 555.102 1185.08 554.604 1184.62 554.22L1184.62 554.22L1163.64 536.83C1163.03 536.32 1162.26 536.04 1161.46 536.038Z" fill="#E6E6E6"/>
<path d="M1241.06 536.038C1240.26 536.04 1239.5 536.32 1238.89 536.83L1217.9 554.22C1217.44 554.604 1217.08 555.102 1216.88 555.665C1216.67 556.229 1216.61 556.837 1216.71 557.429C1216.81 558.021 1217.07 558.576 1217.45 559.039C1217.83 559.502 1218.33 559.855 1218.89 560.064L1244.45 569.543C1245.01 569.752 1245.62 569.809 1246.21 569.709C1246.8 569.608 1247.36 569.353 1247.82 568.97C1248.28 568.587 1248.64 568.088 1248.85 567.525C1249.06 566.962 1249.11 566.353 1249.01 565.761L1244.44 538.892C1244.35 538.298 1244.09 537.741 1243.71 537.278C1243.33 536.815 1242.83 536.462 1242.26 536.256C1241.88 536.113 1241.47 536.039 1241.06 536.038Z" fill="#E6E6E6"/>
<path d="M1200 644C1207.18 644 1213 638.18 1213 631C1213 623.82 1207.18 618 1200 618C1192.82 618 1187 623.82 1187 631C1187 638.18 1192.82 644 1200 644Z" fill="#E6E6E6"/>
<path d="M1194 639H1205V653.211C1205 653.971 1204.86 654.724 1204.58 655.426C1204.3 656.128 1203.9 656.767 1203.39 657.304C1202.88 657.842 1202.27 658.268 1201.6 658.559C1200.94 658.85 1200.22 659 1199.5 659C1198.04 659 1196.64 658.39 1195.61 657.304C1194.58 656.219 1194 654.746 1194 653.211V639H1194Z" fill="#FF6584"/>
<path d="M1200.62 525C1200.18 525.92 1199.75 526.849 1199.34 527.798C1194.57 538.927 1192.96 551.157 1194.69 563.142C1195.56 561.886 1196.47 560.577 1197.39 559.254C1195.41 547.752 1196.52 535.929 1200.62 525Z" fill="#3F3D56"/>
<path d="M1207.54 533.458C1207.1 534.378 1206.67 535.308 1206.26 536.256C1201.49 547.386 1199.88 559.616 1201.61 571.6C1202.48 570.344 1203.39 569.036 1204.31 567.713C1202.33 556.21 1203.44 544.388 1207.54 533.458Z" fill="#3F3D56"/>
<path d="M1228.88 699.509L1227.9 687.111L1226.93 674.713C1226.87 674.044 1226.65 673.4 1226.27 672.847C1225.89 672.293 1225.37 671.85 1224.76 671.56C1224.15 671.271 1223.48 671.147 1222.81 671.199C1222.14 671.252 1221.5 671.48 1220.95 671.86L1210.7 678.904L1203.21 684.047C1202.73 683.487 1202.14 683.037 1201.47 682.729C1200.8 682.42 1200.08 682.261 1199.34 682.261C1198.6 682.261 1197.87 682.42 1197.21 682.729C1196.54 683.037 1195.94 683.487 1195.46 684.047L1187.98 678.904L1177.73 671.86C1177.18 671.48 1176.53 671.252 1175.86 671.199C1175.19 671.147 1174.52 671.271 1173.92 671.56C1173.31 671.849 1172.79 672.293 1172.41 672.846C1172.03 673.4 1171.8 674.044 1171.75 674.713L1170.78 687.111L1169.8 699.509C1169.75 700.179 1169.87 700.85 1170.16 701.456C1170.45 702.062 1170.89 702.581 1171.45 702.962C1172 703.342 1172.64 703.57 1173.31 703.623C1173.98 703.675 1174.65 703.551 1175.26 703.262L1186.49 697.907L1195.71 693.507C1196.18 693.988 1196.75 694.37 1197.37 694.63C1197.99 694.891 1198.66 695.025 1199.34 695.025C1200.01 695.025 1200.68 694.891 1201.31 694.63C1201.93 694.37 1202.5 693.988 1202.97 693.507L1212.19 697.907L1223.42 703.262C1224.02 703.551 1224.69 703.675 1225.36 703.623C1226.03 703.57 1226.68 703.342 1227.23 702.962C1227.78 702.582 1228.23 702.062 1228.52 701.456C1228.81 700.85 1228.93 700.179 1228.88 699.509Z" fill="#38D438"/>
<path d="M1183 620C1184.66 620 1186 618.657 1186 617C1186 615.343 1184.66 614 1183 614C1181.34 614 1180 615.343 1180 617C1180 618.657 1181.34 620 1183 620Z" fill="#E6E6E6"/>
<path d="M1217.5 620C1219.43 620 1221 618.657 1221 617C1221 615.343 1219.43 614 1217.5 614C1215.57 614 1214 615.343 1214 617C1214 618.657 1215.57 620 1217.5 620Z" fill="#E6E6E6"/>
<path d="M1200.84 634.688C1200.45 635.301 1199.55 635.301 1199.16 634.688L1192.33 624.04C1191.9 623.374 1192.38 622.5 1193.17 622.5H1206.83C1207.62 622.5 1208.1 623.374 1207.67 624.04L1200.84 634.688Z" fill="#3F3D56"/>
<path d="M347.123 31.9467C349.29 27.4733 347.42 22.0903 342.947 19.9234C338.473 17.7566 333.09 19.6264 330.923 24.0998C328.757 28.5732 330.626 33.9562 335.1 36.123C339.573 38.2899 344.956 36.4201 347.123 31.9467Z" fill="#38D438"/>
<path d="M888 24C892.971 24 897 19.9706 897 15C897 10.0294 892.971 6 888 6C883.029 6 879 10.0294 879 15C879 19.9706 883.029 24 888 24Z" fill="#38D438"/>
<path d="M30.7639 795.535C32.109 790.75 29.3203 785.78 24.5351 784.435C19.75 783.09 14.7805 785.879 13.4355 790.664C12.0904 795.449 14.8791 800.419 19.6642 801.764C24.4493 803.109 29.4188 800.32 30.7639 795.535Z" fill="#38D438"/>
<path d="M122 908C126.971 908 131 903.971 131 899C131 894.029 126.971 890 122 890C117.029 890 113 894.029 113 899C113 903.971 117.029 908 122 908Z" fill="#684500"/>
<path d="M1242.92 196C1247.9 196 1251.92 191.971 1251.92 187C1251.92 182.029 1247.9 178 1242.92 178C1237.95 178 1233.92 182.029 1233.92 187C1233.92 191.971 1237.95 196 1242.92 196Z" fill="#38D438"/>
<path d="M311 939C315.971 939 320 934.971 320 930C320 925.029 315.971 921 311 921C306.029 921 302 925.029 302 930C302 934.971 306.029 939 311 939Z" fill="#38D438"/>
<path d="M1264.76 632.535C1266.11 627.75 1263.32 622.78 1258.54 621.435C1253.75 620.09 1248.78 622.879 1247.44 627.664C1246.09 632.449 1248.88 637.419 1253.66 638.764C1258.45 640.109 1263.42 637.32 1264.76 632.535Z" fill="#684500"/>
<path d="M507.23 18.9467C509.397 14.4733 507.527 9.0903 503.053 6.92345C498.58 4.75659 493.197 6.6264 491.03 11.0998C488.863 15.5732 490.733 20.9562 495.206 23.123C499.68 25.2899 505.063 23.4201 507.23 18.9467Z" fill="#684500"/>
<path d="M1147 59C1151.97 59 1156 54.9706 1156 50C1156 45.0294 1151.97 41 1147 41C1142.03 41 1138 45.0294 1138 50C1138 54.9706 1142.03 59 1147 59Z" fill="#684500"/>
<path d="M1304 362C1308.97 362 1313 357.971 1313 353C1313 348.029 1308.97 344 1304 344C1299.03 344 1295 348.029 1295 353C1295 357.971 1299.03 362 1304 362Z" fill="#684500"/>
<path d="M54.7639 325.535C56.109 320.75 53.3203 315.78 48.5351 314.435C43.75 313.09 38.7805 315.879 37.4355 320.664C36.0904 325.449 38.8791 330.419 43.6642 331.764C48.4493 333.109 53.4188 330.32 54.7639 325.535Z" fill="#38D438"/>
<path d="M19.7639 456.535C21.109 451.75 18.3203 446.78 13.5351 445.435C8.75003 444.09 3.78054 446.879 2.43547 451.664C1.0904 456.449 3.8791 461.419 8.66421 462.764C13.4493 464.109 18.4188 461.32 19.7639 456.535Z" fill="#684500"/>
<path d="M825 948C829.971 948 834 943.971 834 939C834 934.029 829.971 930 825 930C820.029 930 816 934.029 816 939C816 943.971 820.029 948 825 948Z" fill="#38D438"/>
<path d="M575 946C579.971 946 584 941.971 584 937C584 932.029 579.971 928 575 928C570.029 928 566 932.029 566 937C566 941.971 570.029 946 575 946Z" fill="#684500"/>
<path d="M1270.28 889.329C1265.48 890.616 1262.63 895.551 1263.91 900.352C1265.2 905.153 1270.13 908.003 1274.94 906.716C1279.74 905.43 1282.59 900.495 1281.3 895.693C1280.01 890.892 1275.08 888.043 1270.28 889.329Z" fill="#684500"/>
<path d="M1079.69 908.303C1074.89 909.589 1072.04 914.524 1073.33 919.325C1074.62 924.126 1079.55 926.976 1084.35 925.689C1089.15 924.403 1092 919.468 1090.72 914.667C1089.43 909.865 1084.49 907.016 1079.69 908.303Z" fill="#38D438"/>
<path d="M156.123 15.9467C158.29 11.4733 156.42 6.0903 151.947 3.92345C147.473 1.75659 142.09 3.6264 139.923 8.09979C137.757 12.5732 139.626 17.9562 144.1 20.123C148.573 22.2899 153.956 20.4201 156.123 15.9467Z" fill="#684500"/>
<path d="M37.123 115.947C39.2899 111.473 37.4201 106.09 32.9467 103.923C28.4733 101.757 23.0903 103.626 20.9234 108.1C18.7566 112.573 20.6264 117.956 25.0998 120.123C29.5732 122.29 34.9562 120.42 37.123 115.947Z" fill="#38D438"/>
<defs>
<filter id="filter0_d" x="117" y="70" width="1099.05" height="802.04" filterUnits="userSpaceOnUse" color-interpolation-filters="sRGB">
<feFlood flood-opacity="0" result="BackgroundImageFix"/>
<feColorMatrix in="SourceAlpha" type="matrix" values="0 0 0 0 0 0 0 0 0 0 0 0 0 0 0 0 0 0 127 0"/>
<feOffset dy="5"/>
<feGaussianBlur stdDeviation="2.5"/>
<feColorMatrix type="matrix" values="0 0 0 0 0 0 0 0 0 0 0 0 0 0 0 0 0 0 0.25 0"/>
<feBlend mode="normal" in2="BackgroundImageFix" result="effect1_dropShadow"/>
<feBlend mode="normal" in="SourceGraphic" in2="effect1_dropShadow" result="shape"/>
</filter>
<filter id="filter1_d" x="283.733" y="643.167" width="21.8406" height="51.8204" filterUnits="userSpaceOnUse" color-interpolation-filters="sRGB">
<feFlood flood-opacity="0" result="BackgroundImageFix"/>
<feColorMatrix in="SourceAlpha" type="matrix" values="0 0 0 0 0 0 0 0 0 0 0 0 0 0 0 0 0 0 127 0"/>
<feOffset dy="4"/>
<feGaussianBlur stdDeviation="2"/>
<feColorMatrix type="matrix" values="0 0 0 0 0 0 0 0 0 0 0 0 0 0 0 0 0 0 0.25 0"/>
<feBlend mode="normal" in2="BackgroundImageFix" result="effect1_dropShadow"/>
<feBlend mode="normal" in="SourceGraphic" in2="effect1_dropShadow" result="shape"/>
</filter>
<filter id="filter2_d" x="228.371" y="643.167" width="21.8406" height="51.8204" filterUnits="userSpaceOnUse" color-interpolation-filters="sRGB">
<feFlood flood-opacity="0" result="BackgroundImageFix"/>
<feColorMatrix in="SourceAlpha" type="matrix" values="0 0 0 0 0 0 0 0 0 0 0 0 0 0 0 0 0 0 127 0"/>
<feOffset dy="4"/>
<feGaussianBlur stdDeviation="2"/>
<feColorMatrix type="matrix" values="0 0 0 0 0 0 0 0 0 0 0 0 0 0 0 0 0 0 0.25 0"/>
<feBlend mode="normal" in2="BackgroundImageFix" result="effect1_dropShadow"/>
<feBlend mode="normal" in="SourceGraphic" in2="effect1_dropShadow" result="shape"/>
</filter>
<filter id="filter3_d" x="1161.51" y="731.159" width="21.8406" height="51.8287" filterUnits="userSpaceOnUse" color-interpolation-filters="sRGB">
<feFlood flood-opacity="0" result="BackgroundImageFix"/>
<feColorMatrix in="SourceAlpha" type="matrix" values="0 0 0 0 0 0 0 0 0 0 0 0 0 0 0 0 0 0 127 0"/>
<feOffset dy="4"/>
<feGaussianBlur stdDeviation="2"/>
<feColorMatrix type="matrix" values="0 0 0 0 0 0 0 0 0 0 0 0 0 0 0 0 0 0 0.25 0"/>
<feBlend mode="normal" in2="BackgroundImageFix" result="effect1_dropShadow"/>
<feBlend mode="normal" in="SourceGraphic" in2="effect1_dropShadow" result="shape"/>
</filter>
<filter id="filter4_d" x="1216.87" y="731.159" width="21.8406" height="51.8287" filterUnits="userSpaceOnUse" color-interpolation-filters="sRGB">
<feFlood flood-opacity="0" result="BackgroundImageFix"/>
<feColorMatrix in="SourceAlpha" type="matrix" values="0 0 0 0 0 0 0 0 0 0 0 0 0 0 0 0 0 0 127 0"/>
<feOffset dy="4"/>
<feGaussianBlur stdDeviation="2"/>
<feColorMatrix type="matrix" values="0 0 0 0 0 0 0 0 0 0 0 0 0 0 0 0 0 0 0.25 0"/>
<feBlend mode="normal" in2="BackgroundImageFix" result="effect1_dropShadow"/>
<feBlend mode="normal" in="SourceGraphic" in2="effect1_dropShadow" result="shape"/>
</filter>
<clipPath id="clip0">
<rect width="1089.05" height="792.04" fill="white" transform="translate(122 70)"/>
</clipPath>
</defs>
</svg>
