<svg width="322" height="71" viewBox="0 0 322 71" fill="none" xmlns="http://www.w3.org/2000/svg">
<path d="M41.7585 25.8741C41.962 25.6179 42.1089 25.3214 42.1895 25.0042C42.27 24.6871 42.2824 24.3564 42.2259 24.0341L40.9442 16.4959L39.6624 8.95777C39.5932 8.55076 39.4181 8.16914 39.1546 7.85125C38.8911 7.53336 38.5486 7.29042 38.1614 7.14683C37.7742 7.00324 37.3561 6.96408 36.949 7.03326C36.5418 7.10245 36.1601 7.27755 35.8422 7.54098L29.9531 12.4198L26.4052 15.3591C24.039 14.9384 21.6205 14.902 19.2428 15.2511L15.8251 12.4198L9.93609 7.54098C9.61812 7.27755 9.2364 7.10245 8.82929 7.03327C8.42218 6.96408 8.00403 7.00325 7.61686 7.14684C7.22969 7.29042 6.88713 7.53337 6.62364 7.85125C6.36015 8.16914 6.18501 8.55077 6.1158 8.95778L4.8341 16.496L3.55238 24.0341C3.48394 24.4303 3.51928 24.8375 3.65496 25.2159C1.45842 28.5824 0.204241 32.4758 0.0229029 36.4911C-0.158435 40.5064 0.739679 44.4969 2.62384 48.0476C4.508 51.5983 7.30937 54.5794 10.7365 56.6808C14.1637 58.7822 18.0915 59.9272 22.1113 59.9966C26.1311 60.0661 30.0961 59.0574 33.5938 57.0756C37.0916 55.0938 39.9943 52.2113 42 48.7278C44.0057 45.2443 45.0412 41.2872 44.9987 37.268C44.9563 33.2488 43.8374 29.3145 41.7585 25.8741Z" fill="#684500"/>
<path d="M9.71685 11C9.57751 11.0002 9.43932 11.0243 9.30879 11.0712C9.11687 11.1383 8.94701 11.2533 8.81667 11.4044C8.68632 11.5555 8.60019 11.7372 8.56714 11.9309L7.01643 20.6964C6.98225 20.8896 7.00161 21.0881 7.07256 21.2718C7.14352 21.4556 7.26358 21.6182 7.42065 21.7432C7.57772 21.8683 7.76628 21.9514 7.96738 21.9842C8.16848 22.0171 8.37503 21.9985 8.56627 21.9303L17.2422 18.8378C17.4334 18.7697 17.6026 18.6544 17.7327 18.5035C17.8629 18.3526 17.9494 18.1714 17.9836 17.9783C18.0178 17.7851 17.9984 17.5866 17.9275 17.4029C17.8565 17.2192 17.7365 17.0566 17.5795 16.9316L17.5794 16.9313L10.4543 11.2583C10.2475 11.0919 9.98656 11.0005 9.71685 11Z" fill="#E6E6E6"/>
<path d="M36.2831 11C36.0134 11.0005 35.7525 11.0919 35.5457 11.2583L28.4205 16.9316C28.2635 17.0566 28.1434 17.2192 28.0725 17.4029C28.0016 17.5866 27.9823 17.7851 28.0164 17.9783C28.0506 18.1714 28.1371 18.3526 28.2672 18.5035C28.3974 18.6544 28.5666 18.7697 28.7578 18.8378L37.4337 21.9303C37.625 21.9985 37.8315 22.0171 38.0326 21.9842C38.2337 21.9514 38.4223 21.8683 38.5794 21.7432C38.7364 21.6182 38.8565 21.4556 38.9274 21.2718C38.9984 21.0881 39.0177 20.8896 38.9836 20.6964L37.4329 11.9309C37.3998 11.7372 37.3137 11.5555 37.1833 11.4044C37.053 11.2533 36.8831 11.1383 36.6912 11.0712C36.5607 11.0243 36.4225 11.0002 36.2831 11Z" fill="#E6E6E6"/>
<path d="M22.5 47C26.0898 47 29 44.7614 29 42C29 39.2386 26.0898 37 22.5 37C18.9102 37 16 39.2386 16 42C16 44.7614 18.9102 47 22.5 47Z" fill="#E6E6E6"/>
<path d="M20 44H25V50.3947C25 50.7369 24.9353 51.0756 24.8097 51.3917C24.684 51.7078 24.4999 51.995 24.2677 52.2369C24.0356 52.4789 23.76 52.6708 23.4567 52.8017C23.1534 52.9326 22.8283 53 22.5 53C21.8369 53 21.2011 52.7255 20.7322 52.2369C20.2634 51.7484 20 51.0857 20 50.3947V44H20Z" fill="#FF6584"/>
<path d="M23 7C22.8657 7.31348 22.7353 7.63036 22.6127 7.95372C21.1679 11.7469 20.6806 15.9152 21.2046 20C21.4667 19.5719 21.7421 19.1259 22.0223 18.6749C21.4223 14.7546 21.7597 10.7251 23 7Z" fill="#3F3D56"/>
<path d="M25 10C24.8657 10.3135 24.7353 10.6304 24.6127 10.9537C23.1679 14.7469 22.6806 18.9152 23.2046 23C23.4667 22.5719 23.7422 22.1259 24.0223 21.6749C23.4223 17.7546 23.7597 13.7251 25 10Z" fill="#3F3D56"/>
<path d="M15 37C15.5523 37 16 36.3284 16 35.5C16 34.6716 15.5523 34 15 34C14.4477 34 14 34.6716 14 35.5C14 36.3284 14.4477 37 15 37Z" fill="#E6E6E6"/>
<path d="M30 37C30.5523 37 31 36.3284 31 35.5C31 34.6716 30.5523 34 30 34C29.4477 34 29 34.6716 29 35.5C29 36.3284 29.4477 37 30 37Z" fill="#E6E6E6"/>
<path d="M23.2406 43.1837C22.8438 43.6211 22.1562 43.6211 21.7594 43.1837L19.2537 40.4219C18.6707 39.7793 19.1267 38.75 19.9944 38.75H25.0056C25.8733 38.75 26.3293 39.7793 25.7463 40.4219L23.2406 43.1837Z" fill="#3F3D56"/>
<g filter="url(#filter0_d)">
<path d="M57.1356 45.392V26.096H61.5996V44L63.7596 46.112H68.2236L73.7916 40.544V26.096H78.2556V50H73.9836V45.248L69.2316 50H61.7436L57.1356 45.392ZM83.785 45.824V42.848H88.249V44.624L89.881 46.208H98.329L99.961 44.624V41.456L98.329 39.776H88.009L83.977 35.744V30.272L88.105 26.096H99.769L103.945 30.272V33.248H99.481V31.472L97.849 29.888H90.073L88.441 31.472V34.448L90.073 36.128H100.297L104.425 40.256V45.824L100.297 50H87.961L83.785 45.824ZM109.443 45.44V30.704L114.051 26.096H126.579L131.187 30.704V39.44H113.907V44.048L116.019 46.16H124.611L126.723 44.096V42.464H131.139V45.44L126.627 50H114.003L109.443 45.44ZM126.723 35.936V32.048L124.563 29.936H116.067L113.907 32.048V35.936H126.723Z" fill="#0C7E0C"/>
<path d="M136.964 16.4H143.012L152.996 38.096H153.092L163.124 16.4H169.172V50H162.884V29.552H162.788L155.06 45.296H151.028L143.348 29.552H143.252V50H136.964V16.4ZM175.401 16.4H199.689V21.92H181.929V30.416H198.297V35.84H181.929V44.48H199.689V50H175.401V16.4ZM204.511 16.4H210.559L220.543 38.096H220.639L230.671 16.4H236.719V50H230.431V29.552H230.335L222.607 45.296H218.575L210.895 29.552H210.799V50H204.511V16.4ZM242.468 44.48V21.92L247.988 16.4H265.268L270.788 21.92V44.48L265.268 50H247.988L242.468 44.48ZM261.812 44.432L264.26 41.984V24.416L261.812 21.968H251.444L248.996 24.416V41.984L251.444 44.432H261.812Z" fill="#684500"/>
<path d="M276.798 26.096H281.07V30.272L285.198 26.096H291.582V29.984H286.206L281.262 34.976V50H276.798V26.096ZM316.617 26.096V55.904L311.961 60.512H300.057L296.121 56.576V53.552H300.585V55.232L302.025 56.624H309.993L312.153 54.512V45.44L307.545 50H300.057L295.401 45.344V26.096H299.865V43.952L302.025 46.112H306.633L312.153 40.496V26.096H316.617Z" fill="#2E384D"/>
</g>
<defs>
<filter id="filter0_d" x="52.1356" y="16.4" width="269.482" height="54.112" filterUnits="userSpaceOnUse" color-interpolation-filters="sRGB">
<feFlood flood-opacity="0" result="BackgroundImageFix"/>
<feColorMatrix in="SourceAlpha" type="matrix" values="0 0 0 0 0 0 0 0 0 0 0 0 0 0 0 0 0 0 127 0"/>
<feOffset dy="5"/>
<feGaussianBlur stdDeviation="2.5"/>
<feColorMatrix type="matrix" values="0 0 0 0 0 0 0 0 0 0 0 0 0 0 0 0 0 0 0.25 0"/>
<feBlend mode="normal" in2="BackgroundImageFix" result="effect1_dropShadow"/>
<feBlend mode="normal" in="SourceGraphic" in2="effect1_dropShadow" result="shape"/>
</filter>
</defs>
</svg>
