<svg width="229" height="270" viewBox="0 0 229 270" fill="none" xmlns="http://www.w3.org/2000/svg">
<path d="M212.504 96.0485C213.54 94.7444 214.288 93.2356 214.698 91.6216C215.108 90.0075 215.171 88.325 214.883 86.6848L208.36 48.3238L201.838 9.96288C201.486 7.89166 200.594 5.9496 199.253 4.33191C197.913 2.71422 196.169 1.47791 194.199 0.747209C192.229 0.0165095 190.101 -0.182818 188.029 0.169265C185.957 0.521348 184.015 1.41244 182.397 2.75296L152.428 27.5806L134.373 42.5384C122.332 40.3978 110.024 40.2123 97.9243 41.989L80.5324 27.5806L50.5636 2.75296C48.9455 1.41244 47.003 0.521371 44.9313 0.169291C42.8595 -0.182789 40.7316 0.0165363 38.7614 0.747236C36.7911 1.47794 35.0478 2.71424 33.707 4.33193C32.3661 5.94962 31.4748 7.89169 31.1226 9.96291L24.6002 48.3239L18.0777 86.6848C17.7294 88.7009 17.9092 90.7729 18.5997 92.6989C7.42172 109.831 1.03936 129.644 0.11655 150.077C-0.806257 170.51 3.76414 190.818 13.3524 208.887C22.9407 226.956 37.1966 242.126 54.637 252.82C72.0775 263.514 92.0655 269.341 112.522 269.694C132.978 270.047 153.156 264.915 170.955 254.829C188.755 244.744 203.526 230.075 213.733 212.348C223.94 194.621 229.21 174.484 228.994 154.031C228.777 133.577 223.084 113.556 212.504 96.0485Z" fill="#684500"/>
<path d="M49.4479 20.3556C48.7388 20.3565 48.0356 20.4792 47.3714 20.7177C46.3947 21.0593 45.5303 21.6446 44.867 22.4135C44.2037 23.1824 43.7654 24.1071 43.5972 25.0926L35.7058 69.6994C35.5319 70.6827 35.6304 71.6927 35.9915 72.6278C36.3525 73.5629 36.9635 74.3902 37.7628 75.0266C38.5621 75.6629 39.5217 76.0859 40.5451 76.253C41.5685 76.4201 42.6195 76.3255 43.5928 75.9785L87.7436 60.2415C88.7167 59.8946 89.5777 59.3078 90.2399 58.5399C90.9021 57.7721 91.3424 56.8503 91.5163 55.8671C91.6903 54.884 91.5918 53.8742 91.2309 52.9392C90.8699 52.0042 90.2593 51.1769 89.4602 50.5406L89.4595 50.5393L53.2007 21.6701C52.1486 20.8232 50.8205 20.358 49.4479 20.3556Z" fill="#E6E6E6"/>
<path d="M184.641 20.3556C183.268 20.358 181.94 20.8232 180.888 21.6701L144.629 50.5406C143.83 51.1769 143.219 52.0042 142.858 52.9392C142.497 53.8742 142.399 54.884 142.573 55.8671C142.747 56.8503 143.187 57.7721 143.849 58.5399C144.511 59.3078 145.372 59.8946 146.345 60.2415L190.496 75.9785C191.469 76.3255 192.521 76.4201 193.544 76.253C194.567 76.0859 195.527 75.6629 196.326 75.0266C197.125 74.3902 197.736 73.5629 198.097 72.6278C198.458 71.6927 198.557 70.6827 198.383 69.6994L190.492 25.0926C190.323 24.1071 189.885 23.1824 189.222 22.4135C188.559 21.6446 187.694 21.0593 186.717 20.7177C186.053 20.4792 185.35 20.3565 184.641 20.3556Z" fill="#E6E6E6"/>
<path d="M114.5 203.556C132.768 203.556 147.578 192.164 147.578 178.111C147.578 164.059 132.768 152.667 114.5 152.667C96.2317 152.667 81.4222 164.059 81.4222 178.111C81.4222 192.164 96.2317 203.556 114.5 203.556Z" fill="#E6E6E6"/>
<path d="M101.778 188.289H127.222V220.831C127.222 222.572 126.893 224.296 126.254 225.905C125.614 227.513 124.677 228.975 123.496 230.206C122.315 231.437 120.912 232.413 119.369 233.08C117.825 233.746 116.171 234.089 114.5 234.089C111.126 234.089 107.89 232.692 105.504 230.206C103.118 227.719 101.778 224.347 101.778 220.831V188.289H101.778Z" fill="#FF6584"/>
<path d="M117.044 0C116.361 1.59528 115.698 3.20784 115.074 4.85335C107.721 24.1563 105.241 45.3685 107.908 66.1556C109.242 63.9769 110.643 61.7072 112.069 59.4124C109.015 39.4622 110.733 18.9565 117.044 0Z" fill="#3F3D56"/>
<path d="M127.222 15.2667C126.539 16.8619 125.875 18.4745 125.251 20.12C117.899 39.423 115.419 60.6352 118.085 81.4222C119.419 79.2436 120.821 76.9738 122.247 74.6791C119.193 54.7288 120.91 34.2231 127.222 15.2667Z" fill="#3F3D56"/>
<path d="M76.3333 152.667C79.1438 152.667 81.4222 149.249 81.4222 145.033C81.4222 140.818 79.1438 137.4 76.3333 137.4C73.5227 137.4 71.2444 140.818 71.2444 145.033C71.2444 149.249 73.5227 152.667 76.3333 152.667Z" fill="#E6E6E6"/>
<path d="M152.667 152.667C155.477 152.667 157.756 149.249 157.756 145.033C157.756 140.818 155.477 137.4 152.667 137.4C149.856 137.4 147.578 140.818 147.578 145.033C147.578 149.249 149.856 152.667 152.667 152.667Z" fill="#E6E6E6"/>
<path d="M115.241 187.473C114.844 187.91 114.156 187.91 113.759 187.473L91.7778 163.244C91.1948 162.602 91.6507 161.572 92.5184 161.572H136.482C137.349 161.572 137.805 162.602 137.222 163.244L115.241 187.473Z" fill="#3F3D56"/>
</svg>
